<svg class="main-svg" xmlns="http://www.w3.org/2000/svg" xmlns:xlink="http://www.w3.org/1999/xlink" width="700" height="500" viewBox="0 0 700 500"><rect x="0" y="0" width="700" height="500" style="fill: rgb(255, 255, 255); fill-opacity: 1;"/><defs id="defs-0c65b0"><g class="clips"><clipPath id="clip0c65b0ternary"><path d="M151.24791385931977,420h369.50417228136047l-184.75208614068023,-320Z"/></clipPath><clipPath id="clip-relative0c65b0ternary"><path d="M0,320h369.50417228136047l-184.75208614068023,-320Z"/></clipPath></g><g class="gradients"/></defs><g class="bglayer"/><g class="layer-below"><g class="imagelayer"/><g class="shapelayer"/></g><g class="cartesianlayer"/><g class="polarlayer"/><g class="ternarylayer"><g class="ternary"><g class="toplevel draglayer"/><g class="toplevel plotbg"><path d="M151.24791385931977,420h369.50417228136047l-184.75208614068023,-320Z" style="fill: rgb(255, 255, 255); fill-opacity: 1;"/></g><g class="toplevel backplot" clip-path="url('#clip0c65b0ternary')"><g class="maplayer" transform="translate(151.24791385931977,100)"/></g><g class="toplevel grids" clip-path="url('#clip0c65b0ternary')"><g class="grid agrid" transform="translate(336,100)rotate(30)translate(0,-50.49582771863953)"><path class="ygrid" transform="translate(0,346.09582771863955)" d="M0,0l320,-184.75208614068023" style="stroke: rgb(223, 232, 243); stroke-opacity: 1; stroke-width: 1px;"/><path class="ygrid" transform="translate(0,272.1958277186395)" d="M0,0l320,-184.75208614068023" style="stroke: rgb(223, 232, 243); stroke-opacity: 1; stroke-width: 1px;"/><path class="ygrid" transform="translate(0,198.29582771863954)" d="M0,0l320,-184.75208614068023" style="stroke: rgb(223, 232, 243); stroke-opacity: 1; stroke-width: 1px;"/><path class="ygrid" transform="translate(0,124.39582771863954)" d="M0,0l320,-184.75208614068023" style="stroke: rgb(223, 232, 243); stroke-opacity: 1; stroke-width: 1px;"/></g><g class="grid bgrid" transform="translate(0,420)"><path class="xgrid" transform="translate(225.14791385931977,0)" d="M0,0l-184.75208614068023,-320" style="stroke: rgb(223, 232, 243); stroke-opacity: 1; stroke-width: 1px;"/><path class="xgrid" transform="translate(299.0479138593198,0)" d="M0,0l-184.75208614068023,-320" style="stroke: rgb(223, 232, 243); stroke-opacity: 1; stroke-width: 1px;"/><path class="xgrid" transform="translate(372.9479138593198,0)" d="M0,0l-184.75208614068023,-320" style="stroke: rgb(223, 232, 243); stroke-opacity: 1; stroke-width: 1px;"/><path class="xgrid" transform="translate(446.84791385931976,0)" d="M0,0l-184.75208614068023,-320" style="stroke: rgb(223, 232, 243); stroke-opacity: 1; stroke-width: 1px;"/></g><g class="grid cgrid" transform="translate(336,100)rotate(-30)translate(0,-50.49582771863953)"><path class="ygrid" transform="translate(0,346.09582771863955)" d="M0,0l-320,184.75208614068023" style="stroke: rgb(223, 232, 243); stroke-opacity: 1; stroke-width: 1px;"/><path class="ygrid" transform="translate(0,272.1958277186395)" d="M0,0l-320,184.75208614068023" style="stroke: rgb(223, 232, 243); stroke-opacity: 1; stroke-width: 1px;"/><path class="ygrid" transform="translate(0,198.29582771863954)" d="M0,0l-320,184.75208614068023" style="stroke: rgb(223, 232, 243); stroke-opacity: 1; stroke-width: 1px;"/><path class="ygrid" transform="translate(0,124.39582771863954)" d="M0,0l-320,184.75208614068023" style="stroke: rgb(223, 232, 243); stroke-opacity: 1; stroke-width: 1px;"/></g></g><g class="toplevel frontplot" clip-path="url('#clip0c65b0ternary')"><g class="scatterlayer" transform="translate(151.24791385931977,100)"><g class="trace scatter tracede0331" style="stroke-miterlimit: 2; opacity: 1;"><g class="fills"/><g class="errorbars"/><g class="lines"/><g class="points"><path class="point" transform="translate(173.6,299.69)" d="M6,0A6,6 0 1,1 0,-6A6,6 0 0,1 6,0Z" style="opacity: 0.8; stroke-width: 1px; fill: rgb(253, 237, 176); fill-opacity: 1; stroke: rgb(68, 68, 68); stroke-opacity: 1;"/><path class="point" transform="translate(139.7,304.59)" d="M6,0A6,6 0 1,1 0,-6A6,6 0 0,1 6,0Z" style="opacity: 0.8; stroke-width: 1px; fill: rgb(253, 237, 176); fill-opacity: 1; stroke: rgb(68, 68, 68); stroke-opacity: 1;"/><path class="point" transform="translate(136.47,234.57)" d="M6,0A6,6 0 1,1 0,-6A6,6 0 0,1 6,0Z" style="opacity: 0.8; stroke-width: 1px; fill: rgb(253, 237, 176); fill-opacity: 1; stroke: rgb(68, 68, 68); stroke-opacity: 1;"/><path class="point" transform="translate(183.4,181.94)" d="M6,0A6,6 0 1,1 0,-6A6,6 0 0,1 6,0Z" style="opacity: 0.8; stroke-width: 1px; fill: rgb(253, 237, 176); fill-opacity: 1; stroke: rgb(68, 68, 68); stroke-opacity: 1;"/><path class="point" transform="translate(200.21,146.05)" d="M7.8,0L0,7.8L-7.8,0L0,-7.8Z" style="opacity: 0.8; stroke-width: 1px; fill: rgb(47, 15, 61); fill-opacity: 1; stroke: rgb(68, 68, 68); stroke-opacity: 1;"/><path class="point" transform="translate(189.79,155.02)" d="M7.8,0L0,7.8L-7.8,0L0,-7.8Z" style="opacity: 0.8; stroke-width: 1px; fill: rgb(47, 15, 61); fill-opacity: 1; stroke: rgb(68, 68, 68); stroke-opacity: 1;"/><path class="point" transform="translate(227.38,107.97)" d="M7.8,0L0,7.8L-7.8,0L0,-7.8Z" style="opacity: 0.8; stroke-width: 1px; fill: rgb(47, 15, 61); fill-opacity: 1; stroke: rgb(68, 68, 68); stroke-opacity: 1;"/><path class="point" transform="translate(190.11,145.02)" d="M7.8,0L0,7.8L-7.8,0L0,-7.8Z" style="opacity: 0.8; stroke-width: 1px; fill: rgb(47, 15, 61); fill-opacity: 1; stroke: rgb(68, 68, 68); stroke-opacity: 1;"/><path class="point" transform="translate(160.97,258.99)" d="M6,6H-6V-6H6Z" style="opacity: 0.8; stroke-width: 1px; fill: rgb(206, 68, 87); fill-opacity: 1; stroke: rgb(68, 68, 68); stroke-opacity: 1;"/><path class="point" transform="translate(170.35,206.75)" d="M6,6H-6V-6H6Z" style="opacity: 0.8; stroke-width: 1px; fill: rgb(206, 68, 87); fill-opacity: 1; stroke: rgb(68, 68, 68); stroke-opacity: 1;"/><path class="point" transform="translate(175.85,188.62)" d="M6,6H-6V-6H6Z" style="opacity: 0.8; stroke-width: 1px; fill: rgb(206, 68, 87); fill-opacity: 1; stroke: rgb(68, 68, 68); stroke-opacity: 1;"/><path class="point" transform="translate(177.13,200.08)" d="M6,6H-6V-6H6Z" style="opacity: 0.8; stroke-width: 1px; fill: rgb(206, 68, 87); fill-opacity: 1; stroke: rgb(68, 68, 68); stroke-opacity: 1;"/></g><g class="text"/></g></g></g><g class="toplevel aaxis" transform="translate(336,100)rotate(30)translate(0,-50.49582771863953)"><g class="ytick"><text text-anchor="end" x="-3.5" y="5.25" transform="translate(0,419.99582771863953) rotate(-30,-3.5,-2.25)" style="font-family: 'Open Sans', verdana, arial, sans-serif; font-size: 15px; fill: rgb(42, 63, 95); fill-opacity: 1; white-space: pre;">0</text></g><g class="ytick"><text text-anchor="end" x="-3.5" y="5.25" transform="translate(0,346.09582771863955) rotate(-30,-3.5,-2.25)" style="font-family: 'Open Sans', verdana, arial, sans-serif; font-size: 15px; fill: rgb(42, 63, 95); fill-opacity: 1; white-space: pre;">20</text></g><g class="ytick"><text text-anchor="end" x="-3.5" y="5.25" transform="translate(0,272.1958277186395) rotate(-30,-3.5,-2.25)" style="font-family: 'Open Sans', verdana, arial, sans-serif; font-size: 15px; fill: rgb(42, 63, 95); fill-opacity: 1; white-space: pre;">40</text></g><g class="ytick"><text text-anchor="end" x="-3.5" y="5.25" transform="translate(0,198.29582771863954) rotate(-30,-3.5,-2.25)" style="font-family: 'Open Sans', verdana, arial, sans-serif; font-size: 15px; fill: rgb(42, 63, 95); fill-opacity: 1; white-space: pre;">60</text></g><g class="ytick"><text text-anchor="end" x="-3.5" y="5.25" transform="translate(0,124.39582771863954) rotate(-30,-3.5,-2.25)" style="font-family: 'Open Sans', verdana, arial, sans-serif; font-size: 15px; fill: rgb(42, 63, 95); fill-opacity: 1; white-space: pre;">80</text></g><g class="ytick"><text text-anchor="end" x="-3.5" y="5.25" transform="translate(0,50.49582771863953) rotate(-30,-3.5,-2.25)" style="font-family: 'Open Sans', verdana, arial, sans-serif; font-size: 15px; fill: rgb(42, 63, 95); fill-opacity: 1; white-space: pre;">100</text></g></g><g class="toplevel aline"><path d="M151.24791385931977,420l184.75208614068023,-320" style="stroke: rgb(162, 177, 198); stroke-opacity: 1; stroke-width: 1px;"/></g><g class="toplevel baxis" transform="translate(0,420)"><g class="xtick"><text text-anchor="start" x="0" y="18.5" transform="translate(151.24791385931977,0) rotate(45,0,11)" style="font-family: 'Open Sans', verdana, arial, sans-serif; font-size: 15px; fill: rgb(42, 63, 95); fill-opacity: 1; white-space: pre;">100</text></g><g class="xtick"><text text-anchor="start" x="0" y="18.5" transform="translate(225.14791385931977,0) rotate(45,0,11)" style="font-family: 'Open Sans', verdana, arial, sans-serif; font-size: 15px; fill: rgb(42, 63, 95); fill-opacity: 1; white-space: pre;">80</text></g><g class="xtick"><text text-anchor="start" x="0" y="18.5" transform="translate(299.0479138593198,0) rotate(45,0,11)" style="font-family: 'Open Sans', verdana, arial, sans-serif; font-size: 15px; fill: rgb(42, 63, 95); fill-opacity: 1; white-space: pre;">60</text></g><g class="xtick"><text text-anchor="start" x="0" y="18.5" transform="translate(372.9479138593198,0) rotate(45,0,11)" style="font-family: 'Open Sans', verdana, arial, sans-serif; font-size: 15px; fill: rgb(42, 63, 95); fill-opacity: 1; white-space: pre;">40</text></g><g class="xtick"><text text-anchor="start" x="0" y="18.5" transform="translate(446.84791385931976,0) rotate(45,0,11)" style="font-family: 'Open Sans', verdana, arial, sans-serif; font-size: 15px; fill: rgb(42, 63, 95); fill-opacity: 1; white-space: pre;">20</text></g><g class="xtick"><text text-anchor="start" x="0" y="18.5" transform="translate(520.7479138593197,0) rotate(45,0,11)" style="font-family: 'Open Sans', verdana, arial, sans-serif; font-size: 15px; fill: rgb(42, 63, 95); fill-opacity: 1; white-space: pre;">0</text></g></g><g class="toplevel bline"><path d="M151.24791385931977,420h369.50417228136047" style="stroke: rgb(162, 177, 198); stroke-opacity: 1; stroke-width: 1px;"/></g><g class="toplevel caxis" transform="translate(336,100)rotate(-30)translate(0,-50.49582771863953)"><g class="ytick"><text text-anchor="start" x="3.5" y="5.25" transform="translate(0,419.99582771863953) rotate(-15,3.5,-2.25)" style="font-family: 'Open Sans', verdana, arial, sans-serif; font-size: 15px; fill: rgb(42, 63, 95); fill-opacity: 1; white-space: pre;">100</text></g><g class="ytick"><text text-anchor="start" x="3.5" y="5.25" transform="translate(0,346.09582771863955) rotate(-15,3.5,-2.25)" style="font-family: 'Open Sans', verdana, arial, sans-serif; font-size: 15px; fill: rgb(42, 63, 95); fill-opacity: 1; white-space: pre;">80</text></g><g class="ytick"><text text-anchor="start" x="3.5" y="5.25" transform="translate(0,272.1958277186395) rotate(-15,3.5,-2.25)" style="font-family: 'Open Sans', verdana, arial, sans-serif; font-size: 15px; fill: rgb(42, 63, 95); fill-opacity: 1; white-space: pre;">60</text></g><g class="ytick"><text text-anchor="start" x="3.5" y="5.25" transform="translate(0,198.29582771863954) rotate(-15,3.5,-2.25)" style="font-family: 'Open Sans', verdana, arial, sans-serif; font-size: 15px; fill: rgb(42, 63, 95); fill-opacity: 1; white-space: pre;">40</text></g><g class="ytick"><text text-anchor="start" x="3.5" y="5.25" transform="translate(0,124.39582771863954) rotate(-15,3.5,-2.25)" style="font-family: 'Open Sans', verdana, arial, sans-serif; font-size: 15px; fill: rgb(42, 63, 95); fill-opacity: 1; white-space: pre;">20</text></g><g class="ytick"><text text-anchor="start" x="3.5" y="5.25" transform="translate(0,50.49582771863953) rotate(-15,3.5,-2.25)" style="font-family: 'Open Sans', verdana, arial, sans-serif; font-size: 15px; fill: rgb(42, 63, 95); fill-opacity: 1; white-space: pre;">0</text></g></g><g class="toplevel cline"><path d="M336,100l184.75208614068023,320" style="stroke: rgb(162, 177, 198); stroke-opacity: 1; stroke-width: 1px;"/></g></g></g><g class="geolayer"/><g class="funnelarealayer"/><g class="pielayer"/><g class="treemaplayer"/><g class="sunburstlayer"/><g class="glimages"/><defs id="topdefs-0c65b0"><g class="clips"/><clipPath id="legend0c65b0"><rect width="86" height="29" x="0" y="0"/></clipPath></defs><g class="layer-above"><g class="imagelayer"/><g class="shapelayer"/></g><g class="infolayer"><g class="legend" pointer-events="all" transform="translate(602.24, 100)"><rect class="bg" shape-rendering="crispEdges" style="stroke: rgb(68, 68, 68); stroke-opacity: 1; fill: rgb(255, 255, 255); fill-opacity: 1; stroke-width: 0px;" width="86" height="29" x="0" y="0"/><g class="scrollbox" transform="translate(0, 0)" clip-path="url('#legend0c65b0')"><g class="groups"><g class="traces" transform="translate(0, 14.5)" style="opacity: 1;"><text class="legendtext user-select-none" text-anchor="start" x="40" y="4.680000000000001" style="font-family: 'Open Sans', verdana, arial, sans-serif; font-size: 12px; fill: rgb(42, 63, 95); fill-opacity: 1; white-space: pre;">trace 0</text><g class="layers" style="opacity: 1;"><g class="legendfill"/><g class="legendlines"/><g class="legendsymbols"><g class="legendpoints"><path class="scatterpts" transform="translate(20,0)" d="M6,0A6,6 0 1,1 0,-6A6,6 0 0,1 6,0Z" style="opacity: 0.8; stroke-width: 1px; fill: rgb(253, 237, 176); fill-opacity: 1; stroke: rgb(68, 68, 68); stroke-opacity: 1;"/></g></g></g><rect class="legendtoggle" pointer-events="all" x="0" y="-9.5" width="80.359375" height="19" style="cursor: pointer; fill: rgb(0, 0, 0); fill-opacity: 0;"/></g></g></g><rect class="scrollbar" rx="20" ry="3" width="0" height="0" style="fill: rgb(128, 139, 164); fill-opacity: 1;" x="0" y="0"/></g><g class="g-gtitle"/><g class="g-atitle"><text class="atitle" x="336" y="82.08333333333333" text-anchor="middle" style="font-family: 'Open Sans', verdana, arial, sans-serif; font-size: 20px; fill: rgb(42, 63, 95); opacity: 1; font-weight: normal; white-space: pre;">Fe</text></g><g class="g-btitle"><text class="btitle" x="133.24791385931977" y="454.6" text-anchor="middle" style="font-family: 'Open Sans', verdana, arial, sans-serif; font-size: 20px; fill: rgb(42, 63, 95); opacity: 1; font-weight: normal; white-space: pre;"><tspan class="line" dy="0em" x="133.24791385931977" y="454.6"></tspan><tspan class="line" dy="1.3em" x="133.24791385931977" y="454.6">C</tspan></text></g><g class="g-ctitle"><text class="ctitle" x="538.7520861406803" y="454.6" text-anchor="middle" style="font-family: 'Open Sans', verdana, arial, sans-serif; font-size: 20px; fill: rgb(42, 63, 95); opacity: 1; font-weight: normal; white-space: pre;"><tspan class="line" dy="0em" x="538.7520861406803" y="454.6"></tspan><tspan class="line" dy="1.3em" x="538.7520861406803" y="454.6">oxides</tspan></text></g><g class="annotation" data-index="0" style="opacity: 1;"><g class="annotation-text-g" transform="rotate(0,336,5.999999999999986)"><g class="cursor-pointer" transform="translate(334, 4)"><rect class="bg" x="0.5" y="0.5" width="3" height="3" style="stroke-width: 1px; stroke: rgb(0, 0, 0); stroke-opacity: 0; fill: rgb(0, 0, 0); fill-opacity: 0;"/><text class="annotation-text" text-anchor="middle" x="2" y="2" style="font-family: 'Open Sans', verdana, arial, sans-serif; font-size: 15px; fill: rgb(42, 63, 95); fill-opacity: 1; white-space: pre;"></text></g></g></g></g></svg>